<svg width="32" height="34" viewBox="0 0 32 34" fill="none" xmlns="http://www.w3.org/2000/svg">
<path d="M20.5779 15.3752C22.8062 13.8917 24.2759 11.36 24.2759 8.48274C24.2759 3.9124 20.5703 0.206879 16 0.206879C11.4297 0.206879 7.72414 3.9124 7.72414 8.48274C7.72414 11.36 9.19379 13.8917 11.4221 15.3752C11.4221 15.3752 11.4228 15.3758 11.4234 15.3758C11.4228 15.3758 11.4228 15.3752 11.4228 15.3752C6.08896 16.9827 1.93586 21.3117 0.598618 26.7579L0.599307 26.7586C0.817238 27.0214 1.04344 27.2779 1.27448 27.5296C1.33034 27.591 1.38896 27.6496 1.4462 27.7096C1.62413 27.8986 1.80413 28.0848 1.98896 28.2669C2.06551 28.3421 2.14345 28.4145 2.22138 28.4883C2.39241 28.651 2.56551 28.8117 2.74207 28.9683C2.82965 29.0455 2.91862 29.1221 3.00689 29.1979C3.18 29.3462 3.35517 29.4917 3.53379 29.6338C3.62758 29.709 3.72207 29.7827 3.81655 29.8565C3.99724 29.9958 4.18069 30.131 4.3662 30.2634C4.46207 30.3317 4.55655 30.4014 4.65379 30.4683C4.84965 30.6034 5.04896 30.7331 5.24965 30.8614C5.34 30.9186 5.42827 30.9779 5.51931 31.0345C5.75103 31.1772 5.98689 31.3138 6.22483 31.4476C6.28758 31.4827 6.34896 31.5207 6.41241 31.5552C6.72 31.7234 7.03241 31.8848 7.34965 32.0372C7.35724 32.0407 7.36551 32.0441 7.3731 32.0476C7.67586 32.1924 7.98345 32.3296 8.29448 32.4593C8.39103 32.5 8.48965 32.5358 8.58689 32.5745C8.81172 32.6641 9.03655 32.7524 9.26552 32.8338C9.3869 32.8772 9.50965 32.9165 9.63172 32.9579C9.84 33.0283 10.0497 33.0965 10.2607 33.1593C10.3945 33.1993 10.529 33.2365 10.6641 33.2738C10.8683 33.3303 11.0738 33.3841 11.2814 33.4345C11.4214 33.4683 11.5621 33.5007 11.7034 33.5317C11.911 33.5772 12.1193 33.6186 12.329 33.6572C12.471 33.6834 12.6124 33.7103 12.7559 33.7331C12.9724 33.7683 13.1903 33.7979 13.409 33.8262C13.5469 33.8441 13.6841 33.8641 13.8228 33.8786C14.0641 33.9048 14.3076 33.9234 14.551 33.9407C14.669 33.949 14.7855 33.9614 14.9034 33.9676C15.2669 33.9883 15.6317 34 16 34C16.3683 34 16.7331 33.9883 17.0966 33.969C17.2145 33.9627 17.3317 33.9503 17.449 33.9421C17.6931 33.9248 17.9366 33.9062 18.1772 33.88C18.3159 33.8648 18.4531 33.8455 18.591 33.8276C18.8097 33.7993 19.0276 33.7696 19.2441 33.7345C19.3869 33.711 19.529 33.6848 19.671 33.6586C19.8807 33.62 20.0897 33.5786 20.2966 33.5331C20.4379 33.5021 20.5786 33.4696 20.7186 33.4358C20.9255 33.3855 21.131 33.3317 21.3359 33.2752C21.4703 33.2379 21.6055 33.2007 21.7393 33.1607C21.951 33.0972 22.16 33.029 22.3683 32.9593C22.4903 32.9179 22.6138 32.8786 22.7345 32.8352C22.9628 32.7531 23.1883 32.6655 23.4131 32.5758C23.5103 32.5372 23.609 32.5007 23.7055 32.4607C24.0152 32.331 24.3214 32.1952 24.6228 32.0503C24.6317 32.0462 24.6414 32.0421 24.6503 32.0379C24.9676 31.8855 25.28 31.7241 25.5876 31.5558C25.651 31.5214 25.7124 31.4834 25.7752 31.4483C26.0131 31.3145 26.249 31.1779 26.4807 31.0352C26.5717 30.9793 26.6607 30.92 26.7503 30.8621C26.951 30.7338 27.1503 30.6034 27.3462 30.469C27.4428 30.4021 27.5379 30.3331 27.6338 30.2641C27.8193 30.131 28.0028 29.9958 28.1835 29.8572C28.2786 29.7841 28.3724 29.7096 28.4662 29.6345C28.6441 29.4924 28.82 29.3469 28.9931 29.1986C29.0821 29.1227 29.171 29.0462 29.2579 28.969C29.4345 28.8124 29.6076 28.6517 29.7786 28.489C29.8559 28.4152 29.9345 28.3421 30.011 28.2676C30.1959 28.0855 30.3766 27.8993 30.5538 27.7103C30.6103 27.6496 30.669 27.591 30.7255 27.5303C30.9566 27.2786 31.1828 27.0221 31.4007 26.7593L31.4014 26.7586C30.0648 21.3117 25.9117 16.9827 20.5779 15.3752Z" fill="#C4C4C4"/>
</svg>
